<svg xmlns="http://www.w3.org/2000/svg" width="174" height="50" viewBox="0 0 174 50.000001">
    <g transform="translate(-9.04 -997.11)">
        <path d="M27.388 1006.46c4.164.332 7.836 3.39 9.221 7.285 2.738 5.652 2.822 12.51.135 18.2-1.344 3.245-3.853 6.33-7.435 7.108-4.164 1.127-8.509.574-12.755.453 0-10.6-.169-21.756-.169-33.045 3.66-.223 7.351-.473 11.003 0zm64.228-.233l-43.965 16.75 43.965 16.75m-14.655-6.281v-20.938" fill="none" stroke="#268bd2" stroke-width="4.69"/>
        <path d="M109.553 1010.662v31.256" fill="none" stroke="#268bd2" stroke-width="4.384"/>
        <path d="M92.45 1006.386l4.276-4.276 4.276 4.276-4.276 4.276zm8.552 0l4.275-4.276 4.276 4.276-4.276 4.276zm8.55 0l4.276-4.276 4.276 4.276-4.276 4.276zm8.552 0l4.275-4.276 4.276 4.276-4.276 4.276z" fill="#268bd2"/>
        <path d="M127.49 1006.227l43.964 16.75-43.964 16.75m14.654-27.219v20.938" fill="none" stroke="#268bd2" stroke-width="4.69"/>
        <path d="M171.584 1039.253s.056-6.279-7.582-11.422c0 0 3.082 9.215-3.562 7.704" fill="none" stroke="#268bd2" stroke-width="3" stroke-linecap="round" stroke-linejoin="round"/>
        <ellipse cx="151.239" cy="1021.502" rx="2.345" ry="2.345" fill="#268bd2" fill-rule="evenodd"/>
    </g>
</svg>
