<?xml version="1.0" encoding="UTF-8" standalone="no"?>
<!-- Created with Inkscape (http://www.inkscape.org/) -->

<svg
   xmlns:dc="http://purl.org/dc/elements/1.1/"
   xmlns:cc="http://creativecommons.org/ns#"
   xmlns:rdf="http://www.w3.org/1999/02/22-rdf-syntax-ns#"
   xmlns:svg="http://www.w3.org/2000/svg"
   xmlns="http://www.w3.org/2000/svg"
   xmlns:sodipodi="http://sodipodi.sourceforge.net/DTD/sodipodi-0.dtd"
   xmlns:inkscape="http://www.inkscape.org/namespaces/inkscape"
   id="svg2"
   version="1.1"
   inkscape:version="0.91 r13725"
   xml:space="preserve"
   width="214.82001"
   height="86.459999"
   viewBox="0 0 214.82001 86.459999"
   sodipodi:docname="logo.svg"><metadata
     id="metadata8"><rdf:RDF><cc:Work
         rdf:about=""><dc:format>image/svg+xml</dc:format><dc:type
           rdf:resource="http://purl.org/dc/dcmitype/StillImage" /><dc:title></dc:title></cc:Work></rdf:RDF></metadata><defs
     id="defs6" /><sodipodi:namedview
     pagecolor="#ffffff"
     bordercolor="#666666"
     borderopacity="1"
     objecttolerance="10"
     gridtolerance="10"
     guidetolerance="10"
     inkscape:pageopacity="0"
     inkscape:pageshadow="2"
     inkscape:window-width="1914"
     inkscape:window-height="1024"
     id="namedview4"
     showgrid="false"
     inkscape:zoom="2.4578716"
     inkscape:cx="12.002254"
     inkscape:cy="43.23"
     inkscape:window-x="0"
     inkscape:window-y="26"
     inkscape:window-maximized="0"
     inkscape:current-layer="g10" /><g
     id="g10"
     inkscape:groupmode="layer"
     inkscape:label="logo"
     transform="matrix(1.25,0,0,-1.25,0,86.46)"><g
       id="g12"
       transform="translate(0,27.253)"><g
         id="g14"><g
           id="g16"><g
             id="g18"><path
               d="m 8.27849,35.1751 c 1.81643,0 3.59773,-0.03519 5.34434,-0.24463 l 0.20947,-0.03519 c 3.41497,-0.45493 6.29638,-2.7702 7.47518,-6.00763 l 0.06993,-0.10478 0.06981,-0.13965 C 23.99857,23.2968 24.04956,17.09096 21.58679,11.7033 l -0.03456,-0.07172 0,-0.03467 C 20.29436,8.66278 18.16399,6.18272 15.43929,5.58899 l -0.06983,0 C 12.22586,4.75058 8.73259,4.89021 5.06505,5.09969 c 0,9.67602 -0.105,19.73581 -0.13967,29.90058 l 3.35311,0.17483 z m -0.10501,4.89024 c -1.99076,0 -3.94684,-0.13965 -5.86829,-0.24466 L 0,39.68105 0,37.34065 C 0,25.49905 0.1748,13.79767 0.1748,2.72466 l 0,-2.37557 2.37502,-0.06982 c 4.26186,-0.13965 9.08176,-0.76854 14.00717,0.52393 4.78523,1.04787 7.85957,4.96008 9.46601,8.83762 3.07832,6.6653 3.03979,14.35733 -0.10505,20.99163 -1.78865,5.03674 -6.31545,8.59861 -11.63171,9.15175 l -0.06963,0.0018 -2.68953,0.24411 0,-0.10446 c -1.11767,0.06982 -2.23538,0.1743 -3.3536,0.1743 l 0,-0.03465 z"
               style="fill:#268bd2;fill-opacity:1;fill-rule:nonzero;stroke:none"
               id="path20"
               inkscape:connector-curvature="0" /></g><g
             id="g22"><path
               d="m 63.46869,28.1891 0,-16.31288 -21.34279,8.13886 21.34279,8.13884 0,0.03518 z M 80.40999,39.89052 28.32875,20.05025 80.40999,0.20943 l 1.74663,4.57579 -13.76305,5.23988 0,20.0151 13.76305,5.23936 -1.74663,4.61096 z m 17.3954,-6.95136 0,-32.72973 4.57577,0 0,32.72973 -4.57577,0 z m -15.64877,4.5065 4.50595,4.47078 4.47078,-4.47078 -4.50597,-4.5065 -4.47076,4.5065 z m 8.97673,0 4.47131,4.47078 4.47131,-4.47078 -4.47131,-4.5065 -4.47131,4.5065 z m 8.94262,0 4.50595,4.47078 4.47077,-4.47078 -4.47077,-4.5065 -4.50595,4.5065 z m 8.97672,0 4.47131,4.47078 4.4713,-4.47078 -4.4713,-4.5065 -4.47131,4.5065 z m 10.72389,2.44486 -1.74661,-4.57578 13.7625,-5.2399 0,-20.08491 -13.79717,-5.23935 1.74611,-4.57578 52.11641,19.87545 -52.08124,19.84027 z m 16.90613,-11.70142 21.37744,-8.13885 -21.37744,-8.17403 0,16.2777 0,0.03518 z"
               style="fill:#268bd2;fill-opacity:1;fill-rule:nonzero;stroke:none"
               id="path24"
               inkscape:connector-curvature="0" /></g><g
             id="g26"><path
               d="m 157.11728,16.52234 c -0.56142,-0.0053 -1.07753,-0.30984 -1.35364,-0.79869 -0.22337,-0.39554 -0.26472,-0.86865 -0.1133,-1.29692 -4.1e-4,-6.7e-4 0.69836,-2.27071 0.69836,-4.05249 -0.10448,-0.94287 -0.31447,-1.53665 -0.5586,-1.78128 -0.20999,-0.24465 -0.59428,-0.48931 -2.09627,-0.20948 -0.84645,0.19234 -1.68858,-0.33792 -1.88092,-1.18437 -0.19234,-0.84643 0.33792,-1.68858 1.18437,-1.88092 2.09407,-0.46261 3.91052,-0.11349 5.02822,1.03937 1.11769,1.11769 1.36233,2.58449 1.39699,3.87701 l -0.0698,0.59377 c 1.34491,-1.31471 2.45663,-2.85135 3.28355,-4.54067 0.87329,-2.06103 0.83813,-3.31837 0.83813,-3.31837 0,-0.86807 0.70371,-1.5718 1.5718,-1.5718 0.86807,0 1.57179,0.70373 1.57179,1.5718 5.5e-4,0 5.5e-4,1.99075 -1.0825,4.5406 -1.60749,3.58371 -4.23273,6.62126 -7.54503,8.73194 -0.27056,0.17222 -0.58765,0.25755 -0.90811,0.24449 l 0.035,0.03601 z"
               style="fill:#268bd2;fill-opacity:1;fill-rule:nonzero;stroke:none"
               id="path28"
               inkscape:connector-curvature="0" /></g><g
             id="g30"><path
               d="m 145.75375,21.58688 c 0,1.09357 -0.88649,1.98006 -1.98005,1.98006 -1.09359,0 -1.98006,-0.88649 -1.98006,-1.98006 0,-1.09358 0.88647,-1.98005 1.98006,-1.98005 1.09356,0 1.98005,0.88647 1.98005,1.98005 z"
               style="fill:#268bd2;fill-opacity:1;fill-rule:nonzero;stroke:none"
               id="path32"
               inkscape:connector-curvature="0" /></g></g></g><g
         id="g34"
         transform="translate(85.928,-14.369)"><g
           id="g36"><g
             id="g38"><g
               id="g40"><g
                 id="g42"
                 transform="matrix(2.81587,0,0,2.81587,-87.892,-7.82)"><g
                   id="g44"><g
                     id="g46"
                     transform="translate(1.964,-5.064)"><text
                       transform="matrix(1,0,0,-1,-1.964,5.064)"
                       style="font-variant:normal;font-weight:bold;font-size:9.96259975px;font-family:Lato;-inkscape-font-specification:Lato-Bold;writing-mode:lr-tb;fill:#268bd2;fill-opacity:1;fill-rule:nonzero;stroke:none"
                       id="text48"><tspan
                         x="0 7.4420624 12.652502 16.508028 21.718468 27.058422 30.913948 36.572704 40.637444 45.788109 51.108139 56.766895"
                         y="0"
                         sodipodi:role="line"
                         id="tspan50">DataSturgeon</tspan></text>
<g
                       id="g52"
                       transform="translate(-1.964,5.064)" /></g></g><g
                   id="g54"
                   transform="translate(87.892,7.82)" /></g></g></g></g></g></g></g></svg>